<mxfile host="app.diagrams.net" agent="Mozilla/5.0 (Windows NT 10.0; Win64; x64) AppleWebKit/537.36 (KHTML, like Gecko) Chrome/134.0.0.0 Safari/537.36" version="26.2.2">
  <diagram name="Page-1" id="wJB_1sEkdE1gypnpAlLO">
    <mxGraphModel dx="3073" dy="2200" grid="1" gridSize="10" guides="1" tooltips="1" connect="1" arrows="1" fold="1" page="1" pageScale="1" pageWidth="850" pageHeight="1100" math="0" shadow="0">
      <root>
        <mxCell id="0" />
        <mxCell id="1" parent="0" />
        <mxCell id="7dEdvDVYnRS8Il21OIbk-3" value="Algorithm" style="text;html=1;align=center;verticalAlign=middle;whiteSpace=wrap;rounded=0;" vertex="1" parent="1">
          <mxGeometry x="-240" y="-140" width="60" height="30" as="geometry" />
        </mxCell>
        <mxCell id="7dEdvDVYnRS8Il21OIbk-6" value="Convert to RTL" style="rounded=1;whiteSpace=wrap;html=1;" vertex="1" parent="1">
          <mxGeometry x="-270" y="30" width="120" height="60" as="geometry" />
        </mxCell>
        <mxCell id="7dEdvDVYnRS8Il21OIbk-7" value="" style="endArrow=classic;html=1;rounded=0;exitX=0.5;exitY=1;exitDx=0;exitDy=0;" edge="1" parent="1" source="7dEdvDVYnRS8Il21OIbk-6" target="7dEdvDVYnRS8Il21OIbk-8">
          <mxGeometry width="50" height="50" relative="1" as="geometry">
            <mxPoint x="-160" y="110" as="sourcePoint" />
            <mxPoint x="-210" y="150" as="targetPoint" />
          </mxGeometry>
        </mxCell>
        <mxCell id="7dEdvDVYnRS8Il21OIbk-8" value="RTL Description" style="text;html=1;align=center;verticalAlign=middle;whiteSpace=wrap;rounded=0;" vertex="1" parent="1">
          <mxGeometry x="-240" y="135" width="60" height="30" as="geometry" />
        </mxCell>
        <mxCell id="7dEdvDVYnRS8Il21OIbk-10" value="" style="endArrow=classic;html=1;rounded=0;exitX=0.5;exitY=1;exitDx=0;exitDy=0;" edge="1" parent="1" source="7dEdvDVYnRS8Il21OIbk-8">
          <mxGeometry width="50" height="50" relative="1" as="geometry">
            <mxPoint x="-160" y="110" as="sourcePoint" />
            <mxPoint x="-210" y="220" as="targetPoint" />
          </mxGeometry>
        </mxCell>
        <mxCell id="7dEdvDVYnRS8Il21OIbk-11" value="Check directed test-bench" style="rounded=1;whiteSpace=wrap;html=1;" vertex="1" parent="1">
          <mxGeometry x="-270" y="220" width="120" height="60" as="geometry" />
        </mxCell>
        <mxCell id="7dEdvDVYnRS8Il21OIbk-12" value="" style="endArrow=classic;html=1;rounded=0;exitX=0.5;exitY=1;exitDx=0;exitDy=0;" edge="1" parent="1" source="7dEdvDVYnRS8Il21OIbk-11">
          <mxGeometry width="50" height="50" relative="1" as="geometry">
            <mxPoint x="-170" y="360" as="sourcePoint" />
            <mxPoint x="-210" y="330" as="targetPoint" />
          </mxGeometry>
        </mxCell>
        <mxCell id="7dEdvDVYnRS8Il21OIbk-13" value="true" style="text;html=1;align=center;verticalAlign=middle;whiteSpace=wrap;rounded=0;" vertex="1" parent="1">
          <mxGeometry x="-210" y="290" width="60" height="30" as="geometry" />
        </mxCell>
        <mxCell id="7dEdvDVYnRS8Il21OIbk-14" value="" style="endArrow=classic;html=1;rounded=0;exitX=0;exitY=0.5;exitDx=0;exitDy=0;" edge="1" parent="1" source="7dEdvDVYnRS8Il21OIbk-11">
          <mxGeometry width="50" height="50" relative="1" as="geometry">
            <mxPoint x="-160" y="110" as="sourcePoint" />
            <mxPoint x="-271" y="60" as="targetPoint" />
            <Array as="points">
              <mxPoint x="-350" y="250" />
              <mxPoint x="-350" y="60" />
            </Array>
          </mxGeometry>
        </mxCell>
        <mxCell id="7dEdvDVYnRS8Il21OIbk-15" value="false" style="text;html=1;align=center;verticalAlign=middle;whiteSpace=wrap;rounded=0;" vertex="1" parent="1">
          <mxGeometry x="-330" y="220" width="60" height="30" as="geometry" />
        </mxCell>
        <mxCell id="7dEdvDVYnRS8Il21OIbk-16" value="Is top module ?" style="rounded=1;whiteSpace=wrap;html=1;" vertex="1" parent="1">
          <mxGeometry x="-270" y="330" width="120" height="60" as="geometry" />
        </mxCell>
        <mxCell id="7dEdvDVYnRS8Il21OIbk-17" value="" style="endArrow=classic;html=1;rounded=0;exitX=1;exitY=0.5;exitDx=0;exitDy=0;entryX=1;entryY=0.5;entryDx=0;entryDy=0;" edge="1" parent="1" source="7dEdvDVYnRS8Il21OIbk-16" target="7dEdvDVYnRS8Il21OIbk-6">
          <mxGeometry width="50" height="50" relative="1" as="geometry">
            <mxPoint x="-130" y="210" as="sourcePoint" />
            <mxPoint x="-80" y="160" as="targetPoint" />
            <Array as="points">
              <mxPoint x="-90" y="360" />
              <mxPoint x="-90" y="60" />
            </Array>
          </mxGeometry>
        </mxCell>
        <mxCell id="7dEdvDVYnRS8Il21OIbk-18" value="sub-module" style="text;html=1;align=center;verticalAlign=middle;whiteSpace=wrap;rounded=0;" vertex="1" parent="1">
          <mxGeometry x="-80" y="165" width="60" height="30" as="geometry" />
        </mxCell>
        <mxCell id="7dEdvDVYnRS8Il21OIbk-19" value="" style="endArrow=classic;html=1;rounded=0;exitX=0.5;exitY=1;exitDx=0;exitDy=0;" edge="1" parent="1" source="7dEdvDVYnRS8Il21OIbk-16">
          <mxGeometry width="50" height="50" relative="1" as="geometry">
            <mxPoint x="-120" y="380" as="sourcePoint" />
            <mxPoint x="-210" y="420" as="targetPoint" />
          </mxGeometry>
        </mxCell>
        <mxCell id="7dEdvDVYnRS8Il21OIbk-20" value="Check layered test-bench" style="rounded=1;whiteSpace=wrap;html=1;" vertex="1" parent="1">
          <mxGeometry x="-270" y="420" width="120" height="60" as="geometry" />
        </mxCell>
        <mxCell id="7dEdvDVYnRS8Il21OIbk-21" value="" style="endArrow=classic;html=1;rounded=0;exitX=0;exitY=0.5;exitDx=0;exitDy=0;entryX=0;entryY=0.5;entryDx=0;entryDy=0;" edge="1" parent="1" source="7dEdvDVYnRS8Il21OIbk-20" target="7dEdvDVYnRS8Il21OIbk-6">
          <mxGeometry width="50" height="50" relative="1" as="geometry">
            <mxPoint x="-110" y="350" as="sourcePoint" />
            <mxPoint x="-60" y="300" as="targetPoint" />
            <Array as="points">
              <mxPoint x="-400" y="450" />
              <mxPoint x="-400" y="60" />
            </Array>
          </mxGeometry>
        </mxCell>
        <mxCell id="7dEdvDVYnRS8Il21OIbk-27" value="Specification" style="rounded=1;whiteSpace=wrap;html=1;" vertex="1" parent="1">
          <mxGeometry x="-270" y="-80" width="120" height="60" as="geometry" />
        </mxCell>
        <mxCell id="7dEdvDVYnRS8Il21OIbk-28" value="" style="endArrow=classic;html=1;rounded=0;exitX=0.5;exitY=1;exitDx=0;exitDy=0;entryX=0.5;entryY=0;entryDx=0;entryDy=0;" edge="1" parent="1" source="7dEdvDVYnRS8Il21OIbk-3" target="7dEdvDVYnRS8Il21OIbk-27">
          <mxGeometry width="50" height="50" relative="1" as="geometry">
            <mxPoint x="-80" y="30" as="sourcePoint" />
            <mxPoint x="-30" y="-20" as="targetPoint" />
          </mxGeometry>
        </mxCell>
        <mxCell id="7dEdvDVYnRS8Il21OIbk-29" value="" style="endArrow=classic;html=1;rounded=0;exitX=0.5;exitY=1;exitDx=0;exitDy=0;entryX=0.5;entryY=0;entryDx=0;entryDy=0;" edge="1" parent="1" source="7dEdvDVYnRS8Il21OIbk-27" target="7dEdvDVYnRS8Il21OIbk-6">
          <mxGeometry width="50" height="50" relative="1" as="geometry">
            <mxPoint x="-80" y="30" as="sourcePoint" />
            <mxPoint x="-30" y="-20" as="targetPoint" />
          </mxGeometry>
        </mxCell>
        <mxCell id="7dEdvDVYnRS8Il21OIbk-42" value="" style="endArrow=classic;html=1;rounded=0;exitX=0.5;exitY=1;exitDx=0;exitDy=0;" edge="1" parent="1" source="7dEdvDVYnRS8Il21OIbk-20">
          <mxGeometry width="50" height="50" relative="1" as="geometry">
            <mxPoint x="170" y="330" as="sourcePoint" />
            <mxPoint x="40" y="40" as="targetPoint" />
            <Array as="points">
              <mxPoint x="-210" y="500" />
              <mxPoint x="40" y="500" />
            </Array>
          </mxGeometry>
        </mxCell>
        <mxCell id="7dEdvDVYnRS8Il21OIbk-43" value="Logic synthesis" style="rounded=1;whiteSpace=wrap;html=1;" vertex="1" parent="1">
          <mxGeometry x="-20" y="-20" width="120" height="60" as="geometry" />
        </mxCell>
        <mxCell id="7dEdvDVYnRS8Il21OIbk-46" value="" style="endArrow=classic;html=1;rounded=0;exitX=0.5;exitY=0;exitDx=0;exitDy=0;entryX=1;entryY=0.5;entryDx=0;entryDy=0;" edge="1" parent="1" source="7dEdvDVYnRS8Il21OIbk-43" target="7dEdvDVYnRS8Il21OIbk-27">
          <mxGeometry width="50" height="50" relative="1" as="geometry">
            <mxPoint x="60" y="-40" as="sourcePoint" />
            <mxPoint x="110" y="-90" as="targetPoint" />
            <Array as="points">
              <mxPoint x="40" y="-50" />
            </Array>
          </mxGeometry>
        </mxCell>
        <mxCell id="7dEdvDVYnRS8Il21OIbk-47" value="optimize" style="text;html=1;align=center;verticalAlign=middle;whiteSpace=wrap;rounded=0;" vertex="1" parent="1">
          <mxGeometry x="-50" y="-80" width="60" height="30" as="geometry" />
        </mxCell>
        <mxCell id="7dEdvDVYnRS8Il21OIbk-48" value="IP packaging" style="rounded=1;whiteSpace=wrap;html=1;" vertex="1" parent="1">
          <mxGeometry x="150" y="20" width="120" height="60" as="geometry" />
        </mxCell>
        <mxCell id="7dEdvDVYnRS8Il21OIbk-49" value="" style="endArrow=classic;html=1;rounded=0;exitX=0.5;exitY=1;exitDx=0;exitDy=0;" edge="1" parent="1" source="7dEdvDVYnRS8Il21OIbk-48">
          <mxGeometry width="50" height="50" relative="1" as="geometry">
            <mxPoint x="120" y="120" as="sourcePoint" />
            <mxPoint x="210" y="120" as="targetPoint" />
          </mxGeometry>
        </mxCell>
        <mxCell id="7dEdvDVYnRS8Il21OIbk-50" value="Block design and generate bitstream" style="rounded=1;whiteSpace=wrap;html=1;" vertex="1" parent="1">
          <mxGeometry x="150" y="120" width="120" height="60" as="geometry" />
        </mxCell>
        <mxCell id="7dEdvDVYnRS8Il21OIbk-51" value="" style="endArrow=classic;html=1;rounded=0;exitX=0.5;exitY=1;exitDx=0;exitDy=0;" edge="1" parent="1" source="7dEdvDVYnRS8Il21OIbk-50">
          <mxGeometry width="50" height="50" relative="1" as="geometry">
            <mxPoint x="210" y="200" as="sourcePoint" />
            <mxPoint x="210" y="220" as="targetPoint" />
          </mxGeometry>
        </mxCell>
        <mxCell id="7dEdvDVYnRS8Il21OIbk-52" value="SW coding and check with golden model" style="rounded=1;whiteSpace=wrap;html=1;" vertex="1" parent="1">
          <mxGeometry x="150" y="220" width="120" height="60" as="geometry" />
        </mxCell>
        <mxCell id="7dEdvDVYnRS8Il21OIbk-53" value="" style="curved=1;endArrow=classic;html=1;rounded=0;entryX=1.017;entryY=0.12;entryDx=0;entryDy=0;entryPerimeter=0;" edge="1" parent="1" target="7dEdvDVYnRS8Il21OIbk-52">
          <mxGeometry width="50" height="50" relative="1" as="geometry">
            <mxPoint x="270" y="270" as="sourcePoint" />
            <mxPoint x="330" y="220" as="targetPoint" />
            <Array as="points">
              <mxPoint x="310" y="240" />
            </Array>
          </mxGeometry>
        </mxCell>
        <mxCell id="7dEdvDVYnRS8Il21OIbk-54" value="" style="endArrow=classic;html=1;rounded=0;exitX=0.5;exitY=1;exitDx=0;exitDy=0;" edge="1" parent="1" source="7dEdvDVYnRS8Il21OIbk-52">
          <mxGeometry width="50" height="50" relative="1" as="geometry">
            <mxPoint x="210" y="240" as="sourcePoint" />
            <mxPoint x="210" y="310" as="targetPoint" />
          </mxGeometry>
        </mxCell>
        <mxCell id="7dEdvDVYnRS8Il21OIbk-55" value="pass" style="text;html=1;align=center;verticalAlign=middle;whiteSpace=wrap;rounded=0;" vertex="1" parent="1">
          <mxGeometry x="180" y="310" width="60" height="30" as="geometry" />
        </mxCell>
        <mxCell id="7dEdvDVYnRS8Il21OIbk-56" value="" style="endArrow=classic;html=1;rounded=0;exitX=1;exitY=0.5;exitDx=0;exitDy=0;entryX=0.501;entryY=-0.022;entryDx=0;entryDy=0;entryPerimeter=0;" edge="1" parent="1" source="7dEdvDVYnRS8Il21OIbk-43" target="7dEdvDVYnRS8Il21OIbk-48">
          <mxGeometry width="50" height="50" relative="1" as="geometry">
            <mxPoint x="110" y="270" as="sourcePoint" />
            <mxPoint x="160" y="220" as="targetPoint" />
            <Array as="points">
              <mxPoint x="210" y="10" />
            </Array>
          </mxGeometry>
        </mxCell>
      </root>
    </mxGraphModel>
  </diagram>
</mxfile>
